<?xml version="1.0" encoding="iso-8859-1"?>
<!-- Uploaded to: SVG Repo, www.svgrepo.com, Generator: SVG Repo Mixer Tools -->
<svg version="1.1" id="Layer_1" xmlns="http://www.w3.org/2000/svg" xmlns:xlink="http://www.w3.org/1999/xlink" 
	 viewBox="0 0 512 512" xml:space="preserve">
<path style="fill:#EEBF00;" d="M298.963,238.571l24.55-17.96l8.693-76.772c0-18.728-15.182-33.91-33.91-33.91h-9.658
	c-9.087,0-16.452-7.366-16.452-16.452V78.195l4.262-3.04c4.574-3.264,7.29-8.536,7.29-14.156V25.48
	c0-9.883-8.012-17.895-17.894-17.895h-19.685c-9.883,0-17.895,8.012-17.895,17.895v35.519c0,5.619,2.715,10.892,7.29,14.156
	l4.261,3.04v15.281c0,9.086-7.366,16.452-16.452,16.452h-9.658c-18.728,0-33.91,15.182-33.91,33.91l1.883,16.631l6.81,60.141
	l21.316,17.96H298.963z"/>
<path style="opacity:0.14;fill:#664400;enable-background:new    ;" d="M298.975,109.929h-9.658
	c-9.087,0-16.452-7.366-16.452-16.452V78.195l4.262-3.04c4.574-3.264,7.29-8.536,7.29-14.156V25.48
	c0-9.883-8.012-17.895-17.895-17.895h-12.56c9.883,0,17.895,8.012,17.895,17.895v35.519c0,5.619-2.715,10.892-7.29,14.156
	l-4.262,3.04v15.281c0,9.086,7.366,16.452,16.452,16.452h9.658c18.728,0,33.91,15.182,33.91,33.91l-8.693,76.772l-24.55,17.96h12.56
	l24.55-17.96l8.693-76.772C332.885,125.111,317.703,109.929,298.975,109.929z"/>
<polygon style="fill:#DDB200;" points="296.127,154.589 296.127,209.57 297.526,298.445 281.536,387.319 226.388,387.319 
	210.398,298.445 211.796,209.57 211.796,167.343 "/>
<polygon style="opacity:0.14;fill:#664400;enable-background:new    ;" points="295.277,209.57 295.277,154.589 278.531,157.121 
	278.531,209.57 279.929,298.445 263.939,387.319 280.685,387.319 296.675,298.445 "/>
<g style="opacity:0.25;">
	<path style="fill:#664400;" d="M253.962,394.904c-4.19,0-7.585-3.396-7.585-7.585V251.706c0-4.189,3.395-7.585,7.585-7.585
		c4.19,0,7.585,3.396,7.585,7.585v135.613C261.547,391.509,258.152,394.904,253.962,394.904z"/>
</g>
<rect x="194.338" y="410.458" style="fill:#3E3B43;" width="119.236" height="23.134"/>
<polygon style="fill:#DDB200;" points="194.342,433.589 313.582,433.589 313.582,504.415 194.342,504.415 194.342,489.228 "/>
<polygon style="opacity:0.14;fill:#664400;enable-background:new    ;" points="296.449,410.454 296.449,414.749 296.449,485.575 
	194.342,485.575 194.342,489.228 194.342,504.415 313.582,504.415 313.582,433.589 313.582,410.454 "/>
<rect x="211.793" y="387.319" style="fill:#494949;" width="84.335" height="23.134"/>
<polygon style="fill:#CCA400;" points="297.866,141.835 296.127,167.343 265.428,167.343 253.962,162.918 241.016,167.343 
	211.796,167.343 210.057,141.835 "/>
<path d="M298.296,102.344h-9.657c-4.89,0-8.868-3.978-8.868-8.867V82.101l1.081-0.772c6.555-4.676,10.47-12.277,10.47-20.331V25.48
	C291.323,11.43,279.893,0,265.844,0h-19.686c-14.05,0-25.479,11.43-25.479,25.48v35.519c0,8.053,3.914,15.654,10.47,20.331
	l1.081,0.772v11.375c0,4.89-3.979,8.867-8.867,8.867h-9.658c-22.88,0-41.495,18.615-41.495,41.495c0,0.285,0.016,0.57,0.049,0.854
	l1.883,16.631c0.471,4.164,4.238,7.159,8.39,6.683c4.163-0.471,7.155-4.227,6.683-8.39l-1.833-16.18
	c0.215-14.332,11.941-25.923,26.322-25.923h9.658c13.253,0,24.037-10.783,24.037-24.037V78.195c0-2.451-1.184-4.751-3.181-6.175
	l-4.262-3.04c-2.574-1.836-4.109-4.819-4.109-7.98V25.48c0-5.686,4.625-10.311,10.309-10.311h19.686
	c5.685,0,10.31,4.625,10.31,10.311v35.519c0,3.161-1.536,6.145-4.109,7.98l-4.262,3.04c-1.996,1.424-3.181,3.724-3.181,6.175v15.281
	c0,13.254,10.783,24.037,24.038,24.037h9.657c14.382,0,26.106,11.592,26.322,25.923l-8.269,73.016l-12.387,9.062l-0.252-16.004
	v-41.913l1.721-25.247c0.285-4.18-2.872-7.798-7.052-8.084c-4.167-0.295-7.798,2.871-8.083,7.051l-1.257,18.439H266.84
	l-10.147-3.916c-1.664-0.641-3.497-0.677-5.184-0.101l-11.753,4.017h-20.875l-1.257-18.439c-0.284-4.18-3.943-7.349-8.083-7.051
	c-4.18,0.285-7.337,3.904-7.052,8.084l1.721,25.247v41.912l-0.225,14.242l-10.611-8.94c-3.203-2.698-7.988-2.291-10.688,0.913
	c-2.699,3.204-2.291,7.989,0.912,10.688l20.079,16.918l-0.866,54.997c-0.008,0.49,0.031,0.98,0.118,1.462l14.383,79.947h-5.52
	c-4.19,0-7.585,3.396-7.585,7.585v15.549h-9.87c-4.19,0-7.585,3.396-7.585,7.585v23.134c0,4.189,3.395,7.585,7.585,7.585h111.654
	v55.657H201.927v-7.602c0-4.189-3.395-7.585-7.585-7.585s-7.585,3.396-7.585,7.585v15.187c0,4.189,3.395,7.585,7.585,7.585h119.239
	c4.19,0,7.585-3.396,7.585-7.585v-70.826v-23.134c0-4.189-3.395-7.585-7.585-7.585h-9.87v-15.55c0-4.189-3.395-7.585-7.585-7.585
	h-5.52l14.383-79.947c0.087-0.482,0.126-0.972,0.118-1.462l-0.854-54.23l23.736-17.364c1.71-1.252,2.82-3.161,3.057-5.268
	l8.694-76.772c0.032-0.283,0.049-0.568,0.049-0.854C339.792,120.958,321.177,102.344,298.296,102.344z M305.997,426.004h-104.07
	v-7.964h9.87h84.331h9.87L305.997,426.004L305.997,426.004z M219.381,402.868v-7.964h6.964c0.011,0,0.022,0.001,0.033,0.001
	s0.022-0.001,0.033-0.001h55.099c0.011,0,0.022,0.001,0.033,0.001c0.011,0,0.022-0.001,0.033-0.001h6.964v7.964H219.381z
	 M261.547,379.734V251.706c0-4.189-3.395-7.585-7.585-7.585c-4.19,0-7.585,3.396-7.585,7.585v128.028H232.73l-14.736-81.908
	l1.387-88.137c0.001-0.04,0.001-0.08,0.001-0.119v-34.642h21.635c0.834,0,1.664-0.138,2.453-0.408l10.336-3.533l8.892,3.431
	c0.871,0.337,1.796,0.509,2.731,0.509h23.114v34.642c0,0.04,0,0.08,0.001,0.119l1.387,88.137l-14.736,81.908L261.547,379.734
	L261.547,379.734z"/>
</svg>